<svg width="48" height="48" viewBox="0 0 48 48" fill="none" xmlns="http://www.w3.org/2000/svg">
<path d="M24 0L30 9H27V15H21V9H18L24 0Z" fill="#444972"/>
<path d="M45 21V45H3V21H45ZM48 18H0V48H48V18Z" fill="#444972"/>
<path d="M24 24C25.1819 24 26.3522 24.2328 27.4442 24.6851C28.5361 25.1374 29.5282 25.8003 30.364 26.636C31.1997 27.4718 31.8626 28.4639 32.3149 29.5558C32.7672 30.6478 33 31.8181 33 33C33 34.1819 32.7672 35.3522 32.3149 36.4442C31.8626 37.5361 31.1997 38.5282 30.364 39.364C29.5282 40.1997 28.5361 40.8626 27.4442 41.3149C26.3522 41.7672 25.1819 42 24 42H39V39H42V27H39V24H24Z" fill="#444972"/>
<path d="M15 33C15 30.6131 15.9482 28.3239 17.636 26.636C19.3239 24.9482 21.6131 24 24 24H9V27H6V39H9V42H24C21.6131 42 19.3239 41.0518 17.636 39.364C15.9482 37.6761 15 35.3869 15 33Z" fill="#444972"/>
</svg>
