<svg width="48" height="48" viewBox="0 0 48 48" fill="none" xmlns="http://www.w3.org/2000/svg">
<path d="M24 48L18 39H21V33H27V39H30L24 48Z" fill="#444972"/>
<path d="M45 3V27H3V3H45ZM48 0H0V30H48V0Z" fill="#444972"/>
<path d="M24 6C26.3869 6 28.6761 6.94821 30.364 8.63604C32.0518 10.3239 33 12.6131 33 15C33 17.3869 32.0518 19.6761 30.364 21.364C28.6761 23.0518 26.3869 24 24 24H39V21H42V9H39V6H24Z" fill="#444972"/>
<path d="M15 15C15 12.6131 15.9482 10.3239 17.636 8.63604C19.3239 6.94821 21.6131 6 24 6H9V9H6V21H9V24H24C21.6131 24 19.3239 23.0518 17.636 21.364C15.9482 19.6761 15 17.3869 15 15V15Z" fill="#444972"/>
</svg>
